<svg width="144" height="23" viewBox="0 0 144 23" fill="none" xmlns="http://www.w3.org/2000/svg">
<path fill-rule="evenodd" clip-rule="evenodd" d="M10.9387 22.7181L0.656893 17.9809C-0.218964 17.5673 -0.218964 16.9282 0.656893 16.5522L4.23648 14.8979L10.9006 17.9809C11.7765 18.3945 13.1855 18.3945 14.0232 17.9809L20.6874 14.8979L24.267 16.5522C25.1428 16.9658 25.1428 17.6049 24.267 17.9809L13.9852 22.7181C13.1855 23.0941 11.7765 23.0941 10.9387 22.7181Z" fill="#FF6F3D"/>
<path fill-rule="evenodd" clip-rule="evenodd" d="M10.9387 16.8905L0.656893 12.1533C-0.218964 11.7397 -0.218964 11.1005 0.656893 10.7246L4.16032 9.10791L10.9387 12.2285C11.8145 12.642 13.2235 12.642 14.0613 12.2285L20.8397 9.10791L24.3431 10.7246C25.219 11.1381 25.219 11.7773 24.3431 12.1533L14.0613 16.8905C13.1855 17.304 11.7765 17.304 10.9387 16.8905Z" fill="#95C038"/>
<path fill-rule="evenodd" clip-rule="evenodd" d="M10.9387 11.2133L0.656893 6.47608C-0.218964 6.06251 -0.218964 5.42336 0.656893 5.04739L10.9387 0.310175C11.8145 -0.103392 13.2235 -0.103392 14.0613 0.310175L24.3431 5.04739C25.219 5.46096 25.219 6.10011 24.3431 6.47608L14.0613 11.2133C13.1855 11.5893 11.7765 11.5893 10.9387 11.2133Z" fill="#5DC0E8"/>
<path d="M33 11.4781C33 9.15204 33.6769 7.39655 35.076 6.25549C36.4298 5.07053 38.0545 4.5 39.9048 4.5C41.7551 4.5 43.3346 5.07053 44.6885 6.25549C46.0424 7.44044 46.7194 9.15204 46.7194 11.5219C46.7194 13.848 46.0424 15.6034 44.6885 16.7445C43.3346 17.9295 41.71 18.5 39.9048 18.5C38.0545 18.5 36.475 17.9295 35.076 16.7445C33.6769 15.5596 33 13.8041 33 11.4781ZM35.9785 11.4781C35.9785 13.1019 36.2944 14.2429 36.8811 14.989C37.5129 15.7351 38.1899 16.2179 38.912 16.3934C39.0925 16.4373 39.2279 16.4812 39.4084 16.4812C39.5438 16.4812 39.7243 16.5251 39.8597 16.5251C40.0402 16.5251 40.1756 16.5251 40.3561 16.4812C40.5366 16.4812 40.672 16.4373 40.8525 16.3934C41.5746 16.2179 42.2515 15.7351 42.8382 14.989C43.4249 14.2429 43.7408 13.058 43.7408 11.5219C43.7408 9.94201 43.4249 8.80094 42.8382 8.05486C42.2515 7.30878 41.5746 6.82602 40.8525 6.65047C40.672 6.60658 40.4915 6.5627 40.3561 6.5627C40.1756 6.5627 40.0402 6.51881 39.8597 6.51881C39.6792 6.51881 39.5438 6.51881 39.4084 6.5627C39.273 6.5627 39.0925 6.60658 38.912 6.65047C38.1899 6.82602 37.5129 7.30878 36.8811 8.05486C36.2944 8.71317 35.9785 9.89812 35.9785 11.4781Z" fill="white"/>
<path d="M48.2087 4.63184H51.9094L56.7833 13.2337L57.5054 15.1209H57.5505L57.5054 12.6632V4.63184H60.3486V18.3246H56.648L51.774 9.37165L51.0519 7.8356H51.0068L51.0519 10.2494V18.3246H48.2087V4.63184Z" fill="white"/>
<path d="M63.282 4.63184H66.1251V15.9986H71.7212V18.3246H63.282V4.63184Z" fill="white"/>
<path d="M69.9612 4.63184H73.2556L76.1439 9.41554L76.5952 10.3811H76.6855L77.1368 9.41554L80.0702 4.63184H83.0939L77.9942 12.751V18.3246H75.1511V12.7071L69.9612 4.63184Z" fill="white"/>
<path d="M82.7327 11.4781C82.7327 9.15204 83.4096 7.39655 84.8086 6.25548C86.1625 5.07053 87.7872 4.5 89.6375 4.5C91.4878 4.5 93.0673 5.07053 94.4212 6.25548C95.7751 7.44044 96.452 9.15204 96.452 11.5219C96.452 13.848 95.7751 15.6034 94.4212 16.7445C93.0673 17.9295 91.4427 18.5 89.6375 18.5C87.7872 18.5 86.2076 17.9295 84.8086 16.7445C83.4547 15.5596 82.7327 13.8041 82.7327 11.4781ZM85.7112 11.4781C85.7112 13.1019 86.0271 14.2429 86.6138 14.989C87.2456 15.7351 87.8774 16.2179 88.6446 16.3934C88.8251 16.4373 88.9605 16.4812 89.1411 16.4812C89.2764 16.4812 89.457 16.5251 89.5924 16.5251C89.7729 16.5251 89.9083 16.5251 90.0888 16.4812C90.2693 16.4812 90.4047 16.4373 90.5852 16.3934C91.3073 16.2179 91.9842 15.7351 92.5709 14.989C93.1576 14.2429 93.4735 13.058 93.4735 11.5219C93.4735 9.942 93.1576 8.80094 92.5709 8.05486C91.9842 7.30878 91.3073 6.82602 90.5852 6.65047C90.4047 6.60658 90.2242 6.5627 90.0888 6.5627C89.9083 6.5627 89.7729 6.51881 89.5924 6.51881C89.4118 6.51881 89.2764 6.51881 89.1411 6.5627C89.0057 6.5627 88.8251 6.60658 88.6446 6.65047C87.9226 6.82602 87.2456 7.30878 86.6138 8.05486C86.0271 8.71316 85.7112 9.89812 85.7112 11.4781Z" fill="white"/>
<path d="M98.4375 4.63184H106.29V6.91397H101.281V10.2494H106.064V12.5754H101.281V18.3246H98.4375V4.63184Z" fill="white"/>
<path d="M108.411 4.63184H116.264V6.91397H111.255V10.2494H116.038V12.5754H111.255V18.3246H108.411V4.63184Z" fill="white"/>
<path d="M117.934 18.3246V4.63184H120.777V18.3246H117.934Z" fill="white"/>
<path d="M133.304 4.93899V7.30889C132.808 7.13335 132.311 7.00168 131.77 6.91391C131.228 6.82613 130.597 6.78225 129.965 6.78225C128.475 6.78225 127.347 7.22112 126.535 8.14275C125.723 9.02049 125.316 10.1616 125.316 11.5221C125.316 12.8387 125.677 13.9359 126.445 14.8136C127.212 15.6913 128.295 16.1741 129.694 16.1741C130.19 16.1741 130.687 16.1302 131.274 16.0863C131.86 15.9985 132.447 15.8669 133.079 15.6036L133.259 17.9296C133.169 17.9735 133.034 18.0174 132.898 18.0612C132.718 18.1051 132.537 18.149 132.311 18.1929C131.95 18.2807 131.499 18.3246 130.958 18.4123C130.416 18.4562 129.874 18.5001 129.288 18.5001C129.198 18.5001 129.107 18.5001 129.062 18.5001C128.972 18.5001 128.882 18.5001 128.837 18.5001C127.212 18.4123 125.723 17.7979 124.369 16.7446C123.015 15.6475 122.338 13.9359 122.338 11.6537C122.338 9.41548 123.015 7.65999 124.324 6.43115C125.632 5.20231 127.438 4.58789 129.649 4.58789C130.236 4.58789 130.777 4.58789 131.228 4.63178C131.725 4.67567 132.176 4.76344 132.673 4.85121C132.763 4.8951 132.898 4.8951 132.988 4.93899C133.079 4.8951 133.169 4.93899 133.304 4.93899Z" fill="white"/>
<path d="M135.561 4.63184H144V6.78231H138.449V10.2055H143.458V12.3121H138.449V16.1742H144V18.3246H135.561V4.63184Z" fill="white"/>
</svg>
