<svg width="164" height="31" viewBox="0 0 164 31" fill="none" xmlns="http://www.w3.org/2000/svg">
<path fill-rule="evenodd" clip-rule="evenodd" d="M13.9872 30.6324L0.839963 24.4561C-0.279987 23.9169 -0.279987 23.0836 0.839963 22.5934L5.41715 20.4366L13.9385 24.4561C15.0585 24.9953 16.8601 24.9953 17.9314 24.4561L26.4527 20.4366L31.0299 22.5934C32.1499 23.1326 32.1499 23.9659 31.0299 24.4561L17.8827 30.6324C16.8601 31.1226 15.0585 31.1226 13.9872 30.6324Z" fill="#FF6F3D"/>
<path fill-rule="evenodd" clip-rule="evenodd" d="M13.9446 22.9894L0.837404 16.806C-0.279135 16.2662 -0.279135 15.4319 0.837404 14.9412L5.30356 12.8309L13.9446 16.9041C15.0611 17.444 16.8573 17.444 17.9253 16.9041L26.5663 12.8309L31.0325 14.9412C32.149 15.481 32.149 16.3152 31.0325 16.806L17.9253 22.9894C16.8088 23.5292 15.0126 23.5292 13.9446 22.9894Z" fill="#95C038"/>
<path fill-rule="evenodd" clip-rule="evenodd" d="M13.9446 15.426L0.837404 9.3315C-0.279135 8.79945 -0.279135 7.97718 0.837404 7.49349L13.9446 1.39904C15.0611 0.866986 16.8573 0.866986 17.9253 1.39904L31.0325 7.49349C32.149 8.02555 32.149 8.84781 31.0325 9.3315L17.9253 15.426C16.8088 15.9096 15.0126 15.9096 13.9446 15.426Z" fill="#5DC0E8"/>
<path d="M47.3579 8.33337C43.5647 8.33337 39.8373 10.5606 39.8373 16C39.8373 21.4395 43.5647 23.6667 47.3579 23.6667C51.151 23.6667 54.8784 21.4395 54.8784 16C54.8784 10.5606 51.151 8.33337 47.3579 8.33337ZM47.3579 10.4749C48.5199 10.4749 51.5895 10.9246 51.5895 16C51.5895 21.0754 48.5199 21.5252 47.3579 21.5252C46.1958 21.5252 43.1262 21.0754 43.1262 16C43.1262 10.9246 46.1958 10.4749 47.3579 10.4749Z" fill="#333333"/>
<path d="M57.4079 8.5047V23.4954H60.5213V14.6723L60.4556 12.0168H60.5213L61.2887 13.6872L66.6386 23.4954H70.673V8.5047H67.5595V17.3278L67.6253 19.9833H67.5595L66.7483 17.9488L61.4422 8.5047H57.4079Z" fill="#333333"/>
<path d="M73.7451 8.5047V23.4954H82.9539V20.9684H76.8586V8.5047H73.7451Z" fill="#333333"/>
<path d="M80.3228 8.5047L85.9797 17.3706V23.4954H89.0931V17.4134L94.6184 8.5047H91.3296L88.1503 13.7728L87.6241 14.8008H87.5583L87.076 13.7728L83.9187 8.5047H80.3228Z" fill="#333333"/>
<path d="M101.872 8.33337C98.0793 8.33337 94.3519 10.5606 94.3519 16C94.3519 21.4395 98.0793 23.6667 101.872 23.6667C105.666 23.6667 109.393 21.4395 109.393 16C109.393 10.5606 105.666 8.33337 101.872 8.33337ZM101.872 10.4749C103.034 10.4749 106.104 10.9246 106.104 16C106.104 21.0754 103.034 21.5252 101.872 21.5252C100.71 21.5252 97.6407 21.0754 97.6407 16C97.6407 10.9246 100.71 10.4749 101.872 10.4749Z" fill="#333333"/>
<path d="M111.922 8.5047V23.4954H115.036V17.135H120.254V14.6723H115.036V11.0317H120.517V8.5047H111.922Z" fill="#333333"/>
<path d="M122.714 8.5047V23.4954H125.827V17.135H131.046V14.6723H125.827V11.0317H131.309V8.5047H122.714Z" fill="#333333"/>
<path d="M133.506 23.4954H136.619V8.5047H133.506V23.4954Z" fill="#333333"/>
<path d="M150.898 20.4758C150.13 20.8185 149.056 21.1397 147.696 21.1397C144.934 21.1397 142.434 19.662 142.434 16.0429C142.434 12.9805 144.473 10.8604 147.916 10.8604C149.078 10.8604 150.064 11.0745 150.963 11.4172L151.095 8.84734C149.933 8.48328 148.902 8.33337 147.696 8.33337C142.873 8.33337 139.145 10.9246 139.145 16.0857C139.145 21.5466 143.311 23.6667 147.126 23.6667C148.354 23.6667 149.736 23.474 151.095 23.0242L150.898 20.4758Z" fill="#333333"/>
<path d="M153.504 8.5047V23.4954H162.669V20.8399H156.618V17.0065H162.121V14.5438H156.618V11.1602H162.669V8.5047H153.504Z" fill="#333333"/>
</svg>
