<svg width="15" height="20" viewBox="0 0 15 20" fill="none" xmlns="http://www.w3.org/2000/svg">
<path fill-rule="evenodd" clip-rule="evenodd" d="M1 19H14V5.88965L9.08717 1H1L1 19ZM14 20C14.5523 20 15 19.5523 15 19V5.88965C15 5.62361 14.894 5.36854 14.7054 5.18087L9.7926 0.291223C9.6052 0.104709 9.35157 0 9.08717 0H1C0.447715 0 0 0.447716 0 1V19C0 19.5523 0.447715 20 1 20H14Z" fill="#333333"/>
<path fill-rule="evenodd" clip-rule="evenodd" d="M8.5 2C8.77614 2 9 2.22386 9 2.5V6H12.5C12.7761 6 13 6.22386 13 6.5C13 6.77614 12.7761 7 12.5 7H8.5C8.22386 7 8 6.77614 8 6.5V2.5C8 2.22386 8.22386 2 8.5 2Z" fill="#333333"/>
<path fill-rule="evenodd" clip-rule="evenodd" d="M4 9.5C4 9.22386 4.22386 9 4.5 9H10.5C10.7761 9 11 9.22386 11 9.5C11 9.77614 10.7761 10 10.5 10H4.5C4.22386 10 4 9.77614 4 9.5Z" fill="#333333"/>
<path fill-rule="evenodd" clip-rule="evenodd" d="M4 12.5C4 12.2239 4.22386 12 4.5 12H10.5C10.7761 12 11 12.2239 11 12.5C11 12.7761 10.7761 13 10.5 13H4.5C4.22386 13 4 12.7761 4 12.5Z" fill="#333333"/>
<path fill-rule="evenodd" clip-rule="evenodd" d="M4 15.5C4 15.2239 4.22386 15 4.5 15H10.5C10.7761 15 11 15.2239 11 15.5C11 15.7761 10.7761 16 10.5 16H4.5C4.22386 16 4 15.7761 4 15.5Z" fill="#333333"/>
</svg>
